<?xml version="1.0" encoding="UTF-8"?>
<svg id="Layer_1" data-name="Layer 1" xmlns="http://www.w3.org/2000/svg" viewBox="0 0 589.34 657.54">
  <defs>
    <style>
      .cls-1 {
        fill: #fdfffe;
      }

      .cls-1, .cls-2, .cls-3, .cls-4, .cls-5, .cls-6 {
        stroke-width: 0px;
      }

      .cls-2 {
        fill: #d1cae7;
      }

      .cls-3 {
        fill: #e0d8ef;
      }

      .cls-4 {
        fill: #fe9493;
      }

      .cls-5 {
        fill: #feada7;
      }

      .cls-6 {
        fill: #2b164e;
      }
    </style>
  </defs>
  <g>
    <path class="cls-6" d="m263.84,656.6c-12.1-1.1-26.6-3.6-41-7-13.7-3.2-32-8.7-33.5-10-.5-.5-1.5-.9-2.2-.9s-3.2-.8-5.6-1.9c-11.5-5-12.7-5.1-17.9-1.6-4.9,3.3-15,7.1-23.1,8.6-11.1,2.1-29.1-1.2-42.2-7.8-7.2-3.7-16.7-11.6-21.5-18.1-8.3-11.3-11.8-20.7-12.7-34.3-.5-8.1-.2-10.7,1.6-16.7,1.1-3.8,2.1-7.9,2.1-9s-1.9-4.4-4.3-7.4c-22.1-27.4-40.4-61.7-51-95.3-3.2-10.4-8.2-32.2-10.2-45.5-2.2-14.1-3.1-49.6-1.6-64.2,3.9-37.5,14.1-71.2,32-106.3,13.5-26.5,30.1-49.7,46.6-65.4l7.9-7.4.8-11.6c1.6-22.2,8.9-52.4,16.5-68.1,5.5-11.5,14.4-21,23.8-25.6,5.3-2.6,7-2.9,15-2.8,7.6,0,9.9.5,14.9,2.7,10.6,4.9,28.2,18.6,39.5,30.9,2.9,3.2,5.9,5.8,6.6,5.8.6,0,7.3-2,14.7-4.5,7.5-2.4,17.7-5.2,22.8-6.1,5.5-1,9.4-2.2,9.7-3.1.3-.7.2-2.8-.1-4.6q-.6-3.2-6.6-3.2c-5.3,0-6.5-.4-11.7-4.1-6.7-4.7-11.6-12-13.4-19.9-1-4.6-.9-6.1,1-12.4,5.8-19,25.2-33.1,53.1-38.3,22-4.1,50,.4,67.1,10.8,18.5,11.2,27.4,29,22.3,44.9-3.3,10.7-16.1,20.6-24.8,19.2-4.3-.7-5.9.9-5.4,5.4l.3,3.2,12.9,2.8c7,1.6,13.3,3.2,14,3.7.6.5,2.7,1.2,4.6,1.6,1.9.3,5.9,1.8,8.8,3.2,2.9,1.4,5.5,2.4,5.7,2.3.2-.2,4.3-4.2,9.2-9,31.3-30.3,48.5-37.5,67.5-28.1,18.5,9.1,29.7,30.6,37.2,71.2,1.4,7.4,2.8,17.5,3.2,22.3l.7,8.8,10,9.7c5.5,5.3,10.6,10.4,11.3,11.2,19.7,23.5,28.8,36.8,39.4,57.9,23.3,46.5,34,96.3,31,143.6-1.8,27.2-5.6,47.9-13.7,72.9-10.8,33.7-27.3,63.6-49.9,90.6l-8.7,10.4,1.2,6.5c.6,3.6.9,11.1.7,16.6-.7,15.6-5.1,26.2-16.2,38.7-8.5,9.5-10.7,11.1-19,14.9-10.7,4.9-20.3,6.9-32.5,6.9-14.3,0-22.6-2.2-31.2-8.2-3.5-2.5-4.2-2.4-24.6,4.6-9,3.1-16.6,5.4-16.9,5.1-.3-.2-1-.1-1.6.4-2.7,2.3-33.6,8.4-53.1,10.6-13.9,1.6-45.1,1.8-59.5.4h0Zm71.4-18.8c54.2-8.8,102.3-30.3,141.1-63.1,20.1-17,44.8-45.5,58.3-67.3,18.4-29.4,31.6-68.3,36.3-107.2,1.7-13.1,1.7-45.4,0-58-6.9-54-30.2-106.2-64.3-144.5-4.7-5.2-11.9-12.4-16-16-4.2-3.6-8.1-7.6-8.7-9-.5-1.4-1.5-7.7-2.1-14-2.3-24.1-9.4-52.3-16.3-65.4-5.6-10.6-15.9-18.6-23.8-18.6s-21.6,9.6-40,28.2l-12.7,12.8h-4.9c-3.2,0-9.1-1.5-17.4-4.4-22.4-7.9-45.7-11.6-73.2-11.6s-56.1,4.6-75.5,12.6c-5.9,2.5-9.7,3.4-13.8,3.4h-5.5l-11.7-11.8c-18.1-18.2-33.9-29.2-42.1-29.2-4.9,0-11.7,3.8-16.6,9.2-10.1,11.2-19.8,46.1-22.1,79.3l-.6,10-10.7,11c-20.2,20.9-34.2,40.6-47,66.6-13,26.2-20.8,50.1-26.3,80.7-1.9,11-2.2,16.1-2.3,38.2,0,19.7.4,28,1.8,36.5,5.9,36.4,16.8,68.5,32.9,96.8,22.6,39.6,52.9,71.5,90.3,95.1,32.1,20.3,76.1,35.6,116,40.5,5,.6,10.1,1.3,11.5,1.5,1.4.3,13.8.3,27.5.1,19.3-.2,27.9-.8,37.9-2.4h0Zm-193.6-11.8c1.9-.5.7-1.5-8-6.7-17-10.3-32.4-21.6-44.6-32.9l-7.7-7.2-.3,3.2c-.4,4.5,4.3,17.9,8.4,23.4,11.3,15.5,34.5,24.4,52.2,20.2Zm323.6-1.3c9.6-2.7,16.5-6.7,23.2-13.4s11.8-16.1,13-24l.7-5-3.9,3.3c-18.7,15.8-30.4,24.2-47.7,34.2-5.7,3.3-9.4,6-8.6,6.3,5.4,1.8,13.8,1.3,23.3-1.4h0ZM317.84,76.1c0-3.1-.2-3.2-7.2-5-10-2.6-28.8-2.6-37.5,0-6,1.8-6.3,2-6.3,5v3.2l25.5-.1h25.5v-3.1Zm-70-19.4c12.5-6.4,36.6-9.9,55.8-8.1,13,1.2,21.1,3.1,30.4,7.2,6.4,2.8,6.9,2.9,9.2,1.4,1.3-.9,3.2-3.2,4.1-5.2,1.6-3.3,1.6-3.8,0-7.9-4.1-10.7-17.8-20.3-35.1-24.6-12.2-3-29.6-3-40.9.1-17,4.5-30.3,13.7-34,23.6-1.7,4.3-1.7,4.7,0,8.6,1.5,3.3,4.8,6.9,6.3,6.9.1,0,2-.9,4.2-2h0Z"/>
    <path class="cls-6" d="m159.34,342.1c-5.5-1.9-10.9-6.6-14.2-12.2-2.3-3.9-2.8-6-3.1-13.8-.7-14.6,3.3-23.1,13.6-29.2,4.4-2.5,5.5-2.7,15.7-2.7s11.3.2,15.7,2.7c9.5,5.7,13.8,14.1,13.8,27.3,0,7.4-.3,9-3.2,14.6-3.6,6.8-9.8,12-16.6,13.9-5.2,1.4-17,1.1-21.7-.6h0Z"/>
    <path class="cls-6" d="m263.94,342.2c-5.4-1.7-11.7-7.6-14.4-13.5-1.5-3.4-2-6.7-2.1-14.1-.1-9,.1-9.9,2.3-12.3,2.1-2.2,3.3-2.6,8-2.6,3.1,0,6.1.4,6.7.8,2.1,1.4,3.4,5.1,3.4,9.9,0,5.2,1.5,9,4.2,10.7,2.5,1.6,6.1-2.3,8.7-9.4,2.7-7.4,5.8-10,12-10,7.1,0,9.1,1.6,12.3,9.5,3.4,8.3,5.7,11,8.7,10,3-.9,4-3.3,4.7-11.5.8-8.5,2.3-10,10-10s9.8,2,10.2,11.2c.8,14.8-3.1,24-12.5,29.5-4.2,2.5-5.8,2.8-13.3,2.8-8.8,0-12.8-1.3-17.7-5.7l-2.2-2-3.5,2.7c-6.8,5.2-16.7,6.7-25.5,4h0Z"/>
    <path class="cls-6" d="m402.54,342.3c-6.7-2.5-12.2-7.6-15.3-14.1-1.9-4.1-2.4-6.6-2.4-13.9,0-11.3,1.3-15.6,6.7-21.6,6.2-6.9,12.9-9.3,24.4-8.8,7,.3,9.4.9,13.1,3,10,5.9,14.8,14.8,14.8,27.4,0,11.8-5.8,21.6-16.1,27-4.5,2.4-19.9,3-25.2,1Z"/>
  </g>
  <g>
    <path class="cls-4" d="m160.34,246.1c-6.5-3.7-22.7-16.7-23.6-19-.5-1.4-.9-4.8-.9-7.5,0-4,.5-5.5,2.5-7.4,2-2.1,3.3-2.5,8.8-2.5h6.4l10.9,8.6c6,4.7,11.5,9.2,12.2,10.1.6.9,1.2,4.4,1.2,7.8,0,5.2-.4,6.5-2.5,8.5-3.2,3-10.8,3.7-15,1.4Z"/>
    <path class="cls-4" d="m408.94,244.1c-1.6-2.1-2.1-4.1-2.1-8.8q0-7.2,13.5-17.3c10.5-7.9,11.4-8.3,17.8-8.3,7.7,0,9.7,2.4,9.7,11.2,0,7.5.3,7.1-15.8,19.6-8,6.2-8.1,6.2-14.5,6.2-5.9,0-6.8-.3-8.6-2.6h0Z"/>
    <path class="cls-4" d="m197.44,219.1c-1.4-1.5-5.1-6.3-8.1-10.8-3.1-4.4-7.2-10.3-9.1-13-3-4.3-3.4-5.5-3.4-11.1s.3-6.6,2.8-8.5c2.2-1.8,3.7-2.1,8.4-1.8,3.8.3,6.4,1.1,7.9,2.4,1.2,1,6.4,7.8,11.6,15.1,8.5,11.9,9.5,13.8,10,18.7.5,4.5.2,5.9-1.6,8.5-2.1,2.9-2.6,3.1-9,3.1-6,0-7.1-.3-9.5-2.6h0Z"/>
    <path class="cls-4" d="m368.94,219.1c-1.6-2-2.1-4.1-2.1-8.4,0-5.6,0-5.7,10.5-19.8,6.1-8.2,11.7-14.8,13.4-15.7,5.1-2.6,12.9-1.5,15.7,2.3.8.9,1.3,4.4,1.4,7.7,0,5.6-.3,6.4-4.6,12-2.5,3.3-6.4,8.7-8.6,12-2.2,3.3-5.5,7.5-7.1,9.3-2.9,3-3.5,3.2-9.8,3.2s-7-.3-8.8-2.6h0Z"/>
    <path class="cls-4" d="m239.94,201.9c-1.6-1.2-3.8-6.9-7.6-19.2-6.4-20.4-7-26.6-3-30.5,2-2.1,3.4-2.5,8.5-2.5s6.4.3,8.5,2.6c1.3,1.4,3.2,5.1,4,8.3.9,3.1,3.2,10.4,5.1,16.2,4.3,13.4,4.6,20.8.9,24.4-2,2.1-3.4,2.5-8.3,2.5-4.2,0-6.6-.5-8.1-1.8Z"/>
    <path class="cls-4" d="m328.34,201.7c-3.6-4-3.1-10.5,1.9-26.2,7-21.6,7.5-22.7,10.6-24.3,4.6-2.4,11.4-1.9,14.7.9,3.9,3.4,3.8,10.9-.3,23.6-1.8,5.2-4.2,12.8-5.4,16.8-2.9,9.4-5.1,11.2-13.5,11.2-4.9,0-6.6-.4-8-2Z"/>
    <path class="cls-4" d="m284.14,194.3l-2.8-2.4.1-25.8v-25.7l2.8-2.3c2.2-1.9,3.8-2.4,8.4-2.4,10.8.1,11.2,1.2,11.2,30.4,0,23.6-.6,28.6-3.7,28.6-.7,0-1.3.5-1.3,1,0,.6-2.6,1-5.9,1-4.9,0-6.5-.4-8.8-2.4h0Z"/>
  </g>
  <g>
    <path class="cls-5" d="m99.04,402.7c-7.9-1.2-15.1-5.2-21.9-12.2-7.4-7.8-10.1-14.3-11-26.9-1.9-27.2,15.6-46,43-45.9,17.6.1,31.4,8.5,39,24,3.1,6.2,3.2,6.9,3.1,18.5,0,11.6-.1,12.3-3.5,19.5-5.9,12.5-17.2,21.2-30.2,23.1-7.1,1-11,1-18.5-.1Z"/>
    <path class="cls-5" d="m466.94,402.6c-11.3-2-23.9-11.8-28.9-22.6-2.4-5.4-2.6-6.8-2.7-19.3,0-12.6.2-13.9,2.7-19.3,6.3-13.4,19.2-22.2,34.6-23.4,19.6-1.5,35.4,6.7,43.9,22.8,2.7,5.2,2.8,6,2.8,19.4s-.1,14.2-3.2,20.6c-4.1,8.3-11.2,15.5-18.9,19.1-4.9,2.3-7.8,2.9-15.5,3.3-5.2.2-11.8,0-14.8-.6h0Z"/>
    <path class="cls-5" d="m201.84,220.4c0-1.8.5-2.2,2.8-2.1,5.7.2,6.2.4,6.2,2.4,0,1.7-.7,2-4.5,2-4,0-4.5-.2-4.5-2.3Z"/>
    <path class="cls-5" d="m214.84,212.2c0-.8-.8-1.5-1.7-1.5-1.5,0-1.5-.2-.4-.9.8-.5,1.1-1.6.8-2.5-.5-1.2,0-1.6,1.8-1.6,2.2,0,2.5.4,2.5,4,0,2.9-.4,4-1.5,4-.8,0-1.5-.7-1.5-1.5h0Z"/>
    <path class="cls-5" d="m285.84,195.3c0-.9-.8-1.6-2-1.6-1.6,0-2-.7-2-3.5,0-2.4.5-3.5,1.5-3.5.8,0,1.5.6,1.5,1.3,0,1.8,3.4,4.9,4.3,4,.4-.3.7-.1.7.5,0,.7,1.4,1.2,3.1,1.2,2.5,0,3-.3,2.5-1.6-.5-1.2-.2-1.5,1.3-1.1,1.3.3,2.2-.3,3-1.9,1.5-3.3,3.1-3,3.1.7,0,4.4-1.8,5.6-9.8,6.4-6.2.6-7.2.5-7.2-.9Z"/>
  </g>
  <g>
    <path class="cls-2" d="m292.54,643.9c-1.8-.4-2.4-3.2-.7-3.2.6,0,1-.9,1-2,0-1.7.7-2,5-2h5v3.4c0,3.3-.1,3.4-4.3,3.7-2.4.2-5.1.3-6,.1Z"/>
    <path class="cls-2" d="m261.84,642.6c-7.8-.9-21.8-3.2-30.7-5-3.5-.7-5.3-1.5-5.3-2.5,0-2.5,2.9-2.7,12.4-1,5.1.9,11.3,1.6,13.8,1.6s5,.5,5.3,1c.3.6,2.4,1,4.5,1s4.1.6,4.4,1.3c.5,1,.7,1,1.2,0,.4-.9,2.8-1.3,6.7-1.3,8.6,0,10.7.7,10.7,3.6,0,2.3-.2,2.4-7.7,2.3-4.3-.1-11.2-.5-15.3-1h0Z"/>
    <path class="cls-2" d="m306.04,641c.3-2.6.7-2.8,4.9-3.1,4.9-.3,7.6,1.5,6.5,4.3-.4,1.1-2.1,1.5-6.1,1.5q-5.6,0-5.3-2.7h0Z"/>
    <path class="cls-2" d="m319.84,640.5c0-2.3.4-2.6,6.1-3.2,9.7-1,10.9-.8,10.9,1.3,0,2.4-1.1,2.8-9.9,3.7q-7.1.7-7.1-1.8Z"/>
    <path class="cls-2" d="m337.84,638.8c0-1.2.6-2.1,1.5-2.1.8,0,1.5-.5,1.5-1.1s1.9-.9,4.7-.7c3.5.2,4.9.7,5.1,2,.3,1.6-.3,1.9-9,3.4-3.4.6-3.8.4-3.8-1.5h0Z"/>
    <path class="cls-2" d="m203.54,630.5c-5.1-1.4-4.7-4.2.6-4.6,3.5-.3,3.7-.2,3.7,2.7,0,1.7-.1,3.1-.2,3-.2-.1-2-.6-4.1-1.1h0Z"/>
    <path class="cls-2" d="m122.64,629.7c-27.8-5-44.8-23.8-44.8-49.4,0-4.7.3-8.6.8-8.6.4,0,5.4,4.4,11.2,9.7,17.9,16.4,43.6,34.5,59.3,41.8,2,.9,3.7,2.1,3.7,2.6,0,2.8-21.2,5.6-30.2,3.9Z"/>
    <path class="cls-2" d="m439.04,629.2c-9.2-2.6-9.3-2.9-2.1-6.5,20.7-10.5,43.9-26.8,61.6-43.3l6.2-5.8.6,3.5c.7,3.7-.8,14.8-2.8,20.4-1,2.9-1.5,3.2-5.4,3.2s-4.3.3-4.3,2.1c0,4.1-2.2,4.9-13.4,4.9-8.1,0-10.6.3-10.6,1.3,0,.7-1.8,2.1-4,3.1-3.4,1.5-4,2.2-4,4.7,0,2.7.3,2.9,3.6,2.9,2,0,4.3.7,5.2,1.7,1.6,1.6,1.7,1.5,2-.5.3-1.8,1-2.2,3.8-2.2s3.4-.4,3.4-1.9c0-1.6,1-2,6.1-2.6,3.3-.4,6.2-.5,6.5-.2.8.7-7.6,7.2-12.6,9.7-11.4,5.8-29.8,8.3-39.8,5.5h0Z"/>
    <path class="cls-2" d="m187.84,624.9c-10.4-4.1-12.3-6.5-5.7-7,3.2-.3,3.7,0,3.7,1.7,0,1.8.6,2.1,4.3,2.1,7,0,8.7.8,8.7,4.1,0,1.6-.3,2.9-.7,2.9-.5,0-5.1-1.7-10.3-3.8Z"/>
    <path class="cls-2" d="m157.64,611.6c-3.2-1.6-5.8-3.4-5.8-3.9,0-.6,2-1,4.5-1,3.3,0,4.5.4,4.5,1.5,0,.8.9,1.5,2,1.5,1.5,0,2,.7,2,2.5,0,3.1-.2,3.1-7.2-.6Z"/>
    <path class="cls-2" d="m142.14,602.9c-2.4-1.5-4.3-3-4.3-3.4,0-.5,2-.8,4.4-.8,4.5,0,5.6,1,5.6,5.1,0,2.5-.7,2.4-5.7-.9h0Z"/>
    <path class="cls-2" d="m99.54,570.9c-2.6-2.6-4.7-5.1-4.7-5.5s1.5-.7,3.4-.7c2.5,0,4,.7,5.5,2.6,2,2.6,2.9,8.4,1.3,8.4-.4,0-2.9-2.2-5.5-4.8h0Z"/>
    <path class="cls-2" d="m85.34,556.5c-4.7-5.3-4.8-5.3-2.2-5.6,1.4-.2,3.7.4,5.1,1.4,2.1,1.3,2.6,2.5,2.6,5.5,0,2.2-.2,3.9-.4,3.9s-2.5-2.4-5.1-5.2h0Z"/>
    <path class="cls-2" d="m67.34,533.7c-3.9-5.2-8.1-11-9.4-12.7l-2.2-3.3h3.3c2.7,0,3.5.5,4.6,3,.8,1.7,2,3,2.8,3s1.4.9,1.4,2,.7,2,1.5,2,1.5.7,1.5,1.5.5,1.5,1,1.5c.6,0,1,1.1,1,2.4s.5,2.6,1.1,2.8.9,1.9.7,3.8l-.3,3.5-7-9.5h0Z"/>
    <path class="cls-2" d="m50.04,507.8c-2.9-4.9-5.2-9.2-5.2-9.5s.9-.6,2-.6c2.6,0,6,3,6,5.2,0,.9.7,2.1,1.5,2.6,1.7.9,3.4,11.2,1.8,11.2-.5,0-3.2-4-6.1-8.9h0Z"/>
    <path class="cls-2" d="m568.84,393.2c0-3.2.2-3.5,3-3.5s3,.3,3,3.5-.2,3.5-3,3.5-3-.3-3-3.5Z"/>
    <path class="cls-2" d="m571.84,384.3c0-1.4-.4-2.6-1-2.6-.5,0-1-2-1-4.5,0-4.3.1-4.5,3-4.5h3.1l-.3,6.7c-.2,5.5-.6,6.8-2,7.1-1.3.3-1.8-.3-1.8-2.2Z"/>
    <path class="cls-2" d="m569.84,364.2c0-1.9.5-3.5,1-3.5.6,0,1-.9,1-2,0-1.3.7-2,2-2,1.8,0,2,.7,2,5.5,0,5.4,0,5.5-3,5.5-2.8,0-3-.3-3-3.5Z"/>
    <path class="cls-2" d="m502.34,193.7c-1-1.1-2.4-2-3.2-2-.7,0-1.3-.7-1.3-1.5s-.6-1.5-1.2-1.5c-1.4,0-4.8-5.4-4.8-7.6,0-.9-1.1-1.4-3-1.4-2,0-3-.5-3-1.5,0-.8-.4-1.5-1-1.5-.5,0-1-1.6-1-3.6v-3.6l5.2,4.9c14.3,13.2,19.1,18,19.9,19.6.8,1.4.5,1.7-1.9,1.7-1.6,0-3.7-.9-4.7-2Z"/>
    <path class="cls-2" d="m264.24,82.8c-.2-.2-.4-3.2-.4-6.7v-6.2l6.8-1.8c9.4-2.7,32.7-2.7,43,0l7.2,1.8v13.1l-16.2-.6c-9-.4-21.6-.3-28.1.1s-12.1.5-12.3.3h0Z"/>
    <path class="cls-2" d="m333.04,59.7c-5-2.3-5.1-4.3-.2-4.8,2.3-.2,3.6.2,4.2,1.2.5.9,1.6,1.6,2.3,1.6.8,0,1.5.9,1.5,2,0,2.5-2.2,2.5-7.8,0Z"/>
    <path class="cls-2" d="m318.84,54.6c-3.6-1.1-9.6-2.2-13.5-2.5-3.8-.3-8-.7-9.2-1-2.7-.5-3.1-3.4-.5-3.4,1,0,2.3-.5,2.9-1.1,1.4-1.4,20.3.8,20.3,2.2,0,.5.9.9,2,.9s2,.5,2,1c0,.6.7,1,1.5,1,.9,0,1.5.9,1.5,2.5,0,1.4-.1,2.4-.2,2.4-.2-.1-3.2-1-6.8-2h0Z"/>
    <path class="cls-2" d="m347.14,54.2c-.7-.8-1.3-3.9-1.3-6.9,0-4.7.3-5.6,2.1-6.1,1.1-.4,2.3-.5,2.5-.2,1,1,1.6,7.8,1,11.1-.7,3.8-2.2,4.5-4.3,2.1h0Z"/>
    <path class="cls-2" d="m269.84,50.6c0-2.7.3-2.9,4-2.9,2.2,0,4-.4,4-1,0-1.3,7.7-1.3,8.5,0,.3.6,1.5,1,2.6,1,2.3,0,2.6,2.5.3,3.4-.9.3-3.7.6-6.2.6-2.6.1-6.6.5-8.9.9q-4.3.8-4.3-2Z"/>
  </g>
  <g>
    <path class="cls-3" d="m266.64,643c-2.1-.2-3.8-.8-3.8-1.3s-1.6-.6-3.5-.3c-2.8.4-3.9.1-5-1.3-.8-1.1-1.4-1.4-1.5-.6,0,1.4-5,1.7-5,.2,0-.5-1.3-.7-3-.3-1.7.3-3,.1-3-.4s-1.3-.8-3-.5c-1.6.2-3,0-3-.5,0-.6-1.1-.8-2.5-.5-1.4.2-2.5,0-2.5-.4,0-.5-1.7-.9-3.8-1-4.5-.1-19.8-4.2-21.5-5.8-.7-.6-2.8-1.2-4.7-1.3-1.9-.1-3.9-.8-4.5-1.6-.5-.7-1.6-1.2-2.2-1-.7.3-1.3,0-1.3-.5s-.6-1-1.2-.9c-3.8.1-6-.5-7.6-2-1-1-3-1.9-4.4-2-3-.2-21.8-8.9-21.8-10.1,0-.4-.9-.8-2-.9-2.6-.2-10.8-5.1-12-7.1-.5-1-1-1.3-1-.9-.1,3.4-36.7-23.6-41.3-30.4-1.2-1.8-2.6-3.1-3.1-3-1.2.5-9.6-8-10.7-10.8-.5-1.3-1.2-2.1-1.5-1.8-1.2,1.2-16.4-18-16.4-20.7,0-.9-.4-1.4-1-1.1-.6.3-1-.4-1-1.7,0-1.8-.2-2-1-.8-.7,1.2-1.1.8-1.6-1.8-.4-1.9-1-2.9-1.3-2.3-.4.6-1.6-.6-2.6-2.7-1.1-2-2.6-4.1-3.2-4.5-1.7-1-5.3-8.1-5.3-10.2,0-.9-.4-1.3-1-1-.5.3-1.2-.7-1.6-2.2-.4-1.5-1.5-3.6-2.6-4.6-3.9-3.8-14.2-26.9-20.3-45.8-6.6-20.3-8.5-30.2-8.5-43.1v-11.8h7.7l1.8,8.5c1,4.7,2.2,8.8,2.7,9.1.4.3.8,2,.8,3.7,0,1.8.6,4.3,1.3,5.7.8,1.5,1.6,4.2,1.9,6.1.6,3.4,1.7,6.2,8,19.9,1.6,3.5,4.4,9.8,6.1,14,1.7,4.1,4.2,9,5.4,10.8,1.2,1.9,2.8,4.9,3.5,6.8.6,1.9,1.6,3.4,2,3.4s.8.7.8,1.5.5,1.5,1,1.5c.6,0,1,.6,1,1.4s.6,2.1,1.2,2.8c.7.7,2.9,3.7,4.8,6.5,1.9,2.9,3.8,5.3,4.3,5.3.4,0,.7.7.7,1.5s.4,1.5.8,1.5,1.5,1.3,2.4,2.8c4.1,6.9,26.3,30.3,37.8,39.7,14.8,12.3,28.2,20.8,49,31.4,23.9,12.2,52.9,20.9,87,26.3,11.5,1.8,55.5,1.8,67.5-.1,8.3-1.2,28.3-5.5,38-8.2,16.3-4.4,55.5-20,55.5-22,0-.4,1.6-1.3,3.5-1.9,1.9-.6,3.5-1.5,3.5-2,0-.4,1.1-1.1,2.5-1.4,1.4-.4,2.5-1.1,2.5-1.6,0-.6.7-1,1.5-1s1.5-.4,1.5-1c0-.5,1.1-1.2,2.5-1.6,1.4-.3,2.5-1,2.5-1.5s.6-.9,1.4-.9,1.6-.7,2-1.5c.3-.8,1.2-1.5,2.1-1.5.8,0,1.5-.4,1.5-1,0-.5.7-1,1.5-1s1.5-.5,1.5-1c0-.6,1.1-1.5,2.5-2s2.5-1.4,2.5-2c0-.5.6-1,1.4-1,.7,0,2.1-1.1,3-2.5s2.3-2.5,3-2.5c.8,0,2.1-1.1,3-2.5s2.2-2.5,2.9-2.5c1.5,0,20.7-19.1,20.7-20.7,0-.6,1.1-1.8,2.5-2.7s2.5-2.3,2.5-3.2c0-.8.7-1.7,1.5-2,.8-.4,1.5-1.3,1.5-2,0-.8.7-1.7,1.5-2,.8-.4,1.5-1.2,1.5-2s.5-1.4,1-1.4c.6,0,1-.7,1-1.5,0-.9.7-1.8,1.5-2.1.8-.4,1.5-1.2,1.5-1.8,0-.7.9-2.2,2-3.4s2-2.6,2-3.2c0-.5.5-1,1-1,.6,0,1-.4,1-.9,0-.9,5.9-11.1,7-12.1,1.4-1.2,13-28.3,15.5-36,1.5-4.7,3.1-8.7,3.4-9,.4-.3,1.2-3,1.8-6,.7-3,2.1-9.7,3.2-14.8,1.1-5.1,2.7-15.6,3.6-23.5.9-7.8,2-17,2.6-20.3.8-4.3.8-8.4,0-13.5-.6-4.1-1.5-12.3-2.1-18.2-4.3-42.8-22.5-90-51.4-132.9-6.4-9.5-14.4-20.4-17.7-24.3-13.6-16-13.9-16.4-13.9-21,0-2.3,1-9.8,2.1-16.6,3.7-21.5,1.4-51.1-5.2-66.3-1.3-3.1-3.2-5.8-4.1-6.2-1.1-.3-1.8-1.5-1.8-2.9,0-2.2.2-2.4,2.6-1.5,7.2,2.8,14.4,10.1,19.2,19.5,6,12,13,41.3,15.2,63.5,1.2,12.7,2.3,16.6,5.2,18.1,1,.5,1.6,1.4,1.3,2-.4.5-.1.9.6.9,1.2,0,7.9,5.5,7.9,6.5v1.5c0,.6.9,1,1.9,1,2.4,0,3.6,1.6,1.9,2.3-.9.4-.7.6.3.6,3.7.2,17.1,16.1,29.9,35.3,24.7,37.2,41,86.6,43.3,130.6.4,6.9.2,8.4-1.2,9.2s-1.4.9.2,1c1.4,0,1.7.9,1.7,5.5,0,4.2-.3,5.5-1.5,5.5-1.6,0-2.1,2.6-.6,3.2,1,.3,1.5,4.2,1.3,10-.2,2.6-.7,3.8-1.9,4.1-1.7.4-1.7.5,0,.6,2,.1,2-.7.6,10.6-4.2,36.9-17.9,77-36.1,106.2-13.5,21.8-38.2,50.3-58.3,67.3-33.3,28.2-74.2,48.3-119.9,59.1-5.3,1.2-10.3,1.8-12.2,1.5-1.8-.4-3.4-.2-3.6.4-.4,1.2-9.8,3.1-9.8,1.9,0-.5-.7-.9-1.5-.9s-1.5.4-1.5.9-.9,1.1-2,1.4c-1.1.3-2,.1-2-.4,0-1.1-3.7-1.2-4.2-.1-.6,1.7-7.6,2.1-8.9.6-1.5-1.8-3.8-1.8-4.5.1-.5,1.2-3,1.5-13.9,1.5-9,0-13.5-.4-13.7-1.1-.2-.6-2.8-1.4-5.8-1.7-4.6-.4-5.2-.3-4.7,1.2.4.9.3,1.5-.1,1.4s-2.4-.3-4.4-.5h0Z"/>
    <path class="cls-3" d="m134.84,629.1c0-1.4.2-1.6.9-.6.7,1.1.9,1.1,1.4-.2.4-.9,1.5-1.6,2.6-1.6s2.2-.4,2.5-.9c.7-1,6.2-.9,7.2.2,1.3,1.2-.6,2.1-4.4,2.1-2,0-3.9.3-4.2.7-.3.4-1.8,1.1-3.3,1.4-2.2.6-2.7.4-2.7-1.1h0Z"/>
    <path class="cls-3" d="m453.44,629c-.8-2.1-.9-2,2.7-2.7,1.7-.3,4.3-.8,5.6-1.1,4.3-.8,5.1-2.7,1.1-2.5-5.8.3-6,.2-5.3-3,.3-1.8.1-3-.5-3-.8,0-.8-.9-.1-3,.7-2,2.3-3.5,4.9-4.6,2.2-1,3.7-2.1,3.4-2.5-.3-.5.7-1.1,2.1-1.5,1.3-.3,2.3-1,2-1.5-.3-.4.4-.6,1.5-.4,1.2.2,2.3-.2,2.7-1,.8-2.3,2.5-1.8,1.8.5-.5,1.7-.2,2,2.5,2,2.4,0,3.3-.5,3.7-2.1.6-2,.7-2,1.8-.5,1.1,1.4,1.4,1.5,2.5.1.7-.8,1.8-1.5,2.5-1.5s1.5-.9,1.8-2.1c.3-1.2,1-1.8,1.6-1.5.5.3,1.7-.1,2.5-1,1.5-1.4,1.6-1.4,1.7.3,0,1.5.2,1.4.9-.4.5-1.3,1.4-2.3,1.9-2.3.6,0,.8-.7.4-1.6-.6-1.6,1.2-3.4,3.5-3.4.6,0,1.2.7,1.2,1.5s-.7,1.5-1.5,1.5c-2,0-1.9,1.6.1,2.4.8.3,1.2,1,.9,1.6-.9,1.4-4.2,1.2-4.8-.2-.4-1-.6-1-.6,0-.1.8.8,1.6,1.9,1.9,2.8.7,2.5,2.2-1.8,8.9-5,7.6-9.5,11.6-18.8,16.6-6.5,3.5-7.9,3.9-10,2.9-1.5-.6-2.4-.7-2.4-.1s-.5,1-1.1,1c-.7,0-1.8.8-2.5,1.8-.8,1-1.3,1.2-1.4.5,0-1.4-3-1.8-3-.4,0,1.6-4.9,1.9-5.4.4h0Z"/>
    <path class="cls-3" d="m112.64,626.9c-1-.2-1.8-1-1.8-1.8,0-1.6.9-1.8,2.9-.5,1.8,1.2,1,2.8-1.1,2.3Z"/>
    <path class="cls-3" d="m433.34,626.7c-.4-.6-.2-1.7.4-2.3,1.5-1.5,2.5-.2,1.3,1.9-.7,1.2-1.1,1.3-1.7.4h0Z"/>
    <path class="cls-3" d="m113.14,605.9c-2.4-.9-4.6-2.4-4.9-3.4s-1-1.8-1.5-1.8-.9-.9-.9-2,.5-2,1-2c.6,0,.9.5.8,1.2-.2.7,1.1,1.5,2.7,1.9,1.7.4,2.3.8,1.5.9-.9.1-.5.5.8.8,1.3.4,2.3,1.1,2.2,1.5-.1.5.9,1.7,2.1,2.8,2.6,2.3,1.8,2.3-3.8.1h0Z"/>
    <path class="cls-3" d="m103.14,598.9c-.8-.5-.9-1.3-.3-2.2.7-1.2,1-1.2,1.6.3.8,2.1.3,2.9-1.3,1.9h0Z"/>
    <path class="cls-3" d="m313.84,81.7c0-.5.7-1,1.5-1s1.5.5,1.5,1c0,.6-.7,1-1.5,1s-1.5-.4-1.5-1Z"/>
    <path class="cls-3" d="m238.54,60.6c-4.6-2.7-7.2-13.9-3.2-13.9.8,0,1.5-.4,1.5-1,0-.5.7-1,1.5-1s2.4-.9,3.5-2,2.5-2,3-2c.6,0,3.9-1.8,7.2-4,3.4-2.2,7.2-4,8.5-4s2.3-.4,2.3-1c0-.5.8-1,1.8-1s2.2-.4,2.8-.9c.5-.5,5.9-2.2,11.9-3.7,9.7-2.5,12.8-2.8,26-2.8,14.7.1,26.7,1.5,29.1,3.5.9.7,1.3.5,1.6-.6.2-1.3,1.2-.8,4.7,2.1,6.8,5.9,12.7,16.4,9.1,16.4-.5,0-1,1.4-1,3,0,1.7.5,3,1,3,2.2,0,.8,5-2.2,8-2.9,2.9-3.6,3.2-7.7,2.7-2.5-.3-5-1.2-5.6-2.1-.7-.9-1.5-1.3-1.8-1-.7.7-12.7-3.8-12.7-4.8,0-.3-.9-.4-1.9-.1-1.3.3-2.1-.1-2.4-1.4-.4-1.4-.5-1.4-.6-.2-.1,2.1-5.1,1.3-5.1-.7,0-.8-.4-1.4-1-1.4-.5,0-1,.5-1,1,0,1.6-3.7,1.1-4.4-.6-.5-1.3-.9-1.4-2-.5-2,1.7-17.4,2-18.1.4-.6-1.7-2.5-1.6-2.5.1,0,.7-1.1,1.6-2.5,1.8-1.4.3-2.5.1-2.5-.3,0-1.2-2.8-1.1-3.2.1-.1.5-4.3,2.1-9.1,3.5-4.9,1.4-10.6,3.4-12.7,4.5-4.2,2.2-9.5,2.5-12.3.9h0Z"/>
  </g>
  <g>
    <path class="cls-1" d="m299.24,617.1c-.5-.2-11.2-.5-23.9-.8-12.6-.3-24.6-.8-26.5-1.1s-5.1-.8-7-1c-4.5-.5-7.1-1.1-9-1.8-.8-.4-3.1-.8-5-1-2-.2-4.1-.7-4.9-1.1-.7-.4-1.5-.5-1.8-.2s-1.3.1-2.2-.3c-.9-.5-3-1.1-4.8-1.4-1.7-.3-3.6-.8-4.1-1.1-.4-.3-1.9-.7-3.3-1-7.2-1.4-31.2-10.5-43.4-16.6-22.1-10.8-35.8-19.5-51.5-32.5-11.5-9.4-33.7-32.8-37.8-39.7-.9-1.5-2-2.8-2.4-2.8s-.8-.7-.8-1.5-.3-1.5-.7-1.5c-.5,0-2.4-2.4-4.3-5.3-1.9-2.8-4.1-5.8-4.8-6.5-.6-.7-1.2-2-1.2-2.8s-.4-1.4-1-1.4c-.5,0-1-.7-1-1.5s-.4-1.5-.8-1.5-1.4-1.5-2-3.4c-.7-1.9-2.3-4.9-3.5-6.8-1.2-1.8-3.6-6.4-5.2-10.3-1.6-3.8-3.1-7.2-3.4-7.5-.3-.3-.7-1.1-.9-1.9-.2-.8-1.7-4.2-3.3-7.5-1.7-3.4-3-6.2-3-6.4.1-.1-.6-1.9-1.4-3.9-1.5-3.5-2.2-5.9-2.9-9.4-.2-.8-.9-2.7-1.6-4.4-.6-1.6-1.3-4.2-1.4-5.6-.2-1.4-.5-3-.8-3.5s-1.4-4.6-2.3-9.1c-1-4.6-2.1-8.3-2.5-8.3-.3,0-.7,3.3-.7,7.3s-.2,9.3-.4,11.9c-.8,10.9-4.2-2-6.9-26.1-1.4-12.3-1.4-43,0-55.6,4.6-42.5,20.8-87.3,44.3-122.8,10-15.2,17.2-24.2,30.8-38.2l10.7-11,.6-10c1.6-22.8,7.6-50.7,14.3-66.3,8.3-19.4,23.1-27,38.5-20,8.2,3.8,21.2,14.1,34,27,8.8,8.9,12.3,11.8,14.2,11.8,1.4,0,6.3-1.5,10.8-3.4,20.1-8.3,47.7-12.7,78.6-12.7s53,3.5,76.2,11.7c6.8,2.4,13.3,4.4,14.3,4.4,1.1,0,7.2-5.3,14.6-12.8,13.5-13.6,23.4-21.6,31.8-25.8,7-3.5,15.1-3.7,21.1-.5,2.4,1.2,4.1,2.5,3.8,2.8s.4,2.3,1.5,4.5c3.7,7.3,6,21.1,6.6,40.4.5,15.9.3,19.8-1.7,31.8-2.5,15.5-2.9,14.2,5.8,24,10.3,11.7,14,16.5,24.8,32.7,11.2,16.9,24,40.6,31,57.4,3.1,7.7,10.7,28.8,11.9,33.5,2.1,7.7,6.6,31.4,7.4,39,3.1,28.1,3.5,33.4,2.2,38.6-.6,2.7-1.3,9.1-1.4,14.2-.1,5-.5,9.2-1,9.2-.4,0-.5,1.6-.1,3.5.4,2.4.2,3.5-.6,3.5-.6,0-1,1-.9,2.3.1,1.2-.3,4.1-.9,6.3-.7,2.3-1,4.9-.6,5.7.3.8.1,1.8-.4,2.1-.6.3-.8,1.5-.5,2.6s.1,2-.5,2-.8.9-.5,2,.1,2-.5,2-.8.9-.5,2,0,2-.6,2-1.1,1.4-1.1,3c0,1.7-.5,3-1.1,3s-.9.7-.5,1.5c.3.8.1,1.5-.5,1.5s-.9.7-.5,1.5c.3.8.1,1.5-.5,1.5s-.9.7-.5,1.5c.3.8.1,1.5-.4,1.5s-.7.7-.4,1.5c.4.8.1,1.5-.6,1.5s-1,.7-.6,1.5c.3.8.1,1.5-.5,1.5s-.9.6-.7,1.2c.3.7-.1,1.9-.8,2.6-.7.7-1.1,1.9-.8,2.7.4.8.1,1.5-.6,1.5-.6,0-.8.5-.5,1,.3.6.1,1-.5,1s-.8.5-.5,1c.3.6.1,1-.5,1s-.8.5-.5,1c.3.6.1,1-.5,1s-.8.5-.5,1c.3.6.1,1-.5,1-.7,0-1,.7-.6,1.5.3.8.1,1.5-.5,1.5s-.7.5-.4,1c.3.6.1,1-.5,1s-.8.5-.5,1c.3.6.1,1-.5,1s-.8.5-.5,1c.3.6.1,1-.5,1s-.8.5-.5,1c.3.6.1,1-.5,1s-.8.5-.5,1c.3.6-.1,1.3-.9,1.6-.9.3-1.3,1-1,1.5s0,.9-.6.9-.8.5-.5,1c.3.6.1,1-.5,1s-.9.4-.6.9c.3.5-.1,1.2-1,1.5-.8.3-1.3,1-1,1.5s-.1,1.2-1,1.5c-.8.3-1.2,1-.9,1.6s-.1,1.3-.9,1.6c-.9.3-1.3,1-1,1.5s-.2,1.2-1,1.5c-.9.3-1.4,1-1.1,1.4.3.4-.2,1.1-1.1,1.4-.8.3-1.3,1-.9,1.5.3.6-.4,1.5-1.5,2.1s-1.8,1.5-1.5,2.1c.4.5-.1,1.2-.9,1.5-.9.3-1.4,1-1.1,1.5.3.4-.4,1.3-1.5,1.9-1.1.6-1.8,1.5-1.5,2s-.4,1.4-1.5,2-1.8,1.5-1.5,2c.3.4-.7,1.8-2.2,3-1.6,1.2-2.6,2.4-2.3,2.6.8.6-20.3,21.4-21.7,21.4-.7,0-2,1.1-2.9,2.5s-2.2,2.5-3,2.5c-.7,0-2.1,1.1-3,2.5s-2.3,2.5-3,2.5c-.8,0-1.4.5-1.4,1,0,.6-1.1,1.5-2.5,2s-2.5,1.4-2.5,2c0,.5-.7,1-1.5,1s-1.5.5-1.5,1c0,.6-.7,1-1.5,1-.9,0-1.8.7-2.1,1.5-.4.8-1.2,1.5-2,1.5s-1.4.4-1.4.9-1.1,1.2-2.5,1.5c-1.4.4-2.5,1.1-2.5,1.6,0,.6-.7,1-1.5,1s-1.5.4-1.5,1c0,.5-1.1,1.2-2.5,1.6-1.4.3-2.5,1-2.5,1.4,0,.5-1.6,1.4-3.5,2s-3.5,1.5-3.5,1.9c0,1.5-27.7,13.1-43.2,18.2-3.8,1.2-6.8,2.6-6.8,3.1s-.4.7-.9.3c-1.4-.8-10.1,1.5-10.1,2.7,0,.5-.5.6-1,.3-1.3-.8-20.3,3.5-21.1,4.8-.4.5-1.4.7-2.3.4-1.5-.6-5.2-.2-23.7,2.2-3,.4-6,.6-6.5.5h0Zm-178.4-218.6c4.8-1.5,12.7-6.7,17.2-11.4,2-2.2,5.1-7,6.9-10.9,2.8-6.2,3.2-8.1,3.3-16.1.1-8.2-.2-9.6-3.1-15.5-10.6-21.4-34.3-29.6-55.2-18.9-22.9,11.6-27.9,42.9-9.8,61.8,6.8,7,14,11,21.9,12.2,6,.8,13.6.4,18.8-1.2h0Zm373.5-1.7c7.6-3.5,14.7-10.6,18.8-19,3-6.2,3.2-7.2,3.2-17.6s-.1-11.2-3.4-17.2c-6-11.1-16.3-18.8-28.4-21.3-17.1-3.5-35.8,6.3-43.5,22.8-2.4,5.1-2.7,6.8-2.6,16.2,0,9.2.4,11.2,2.7,16.3,3.1,6.8,11.1,15.1,18.3,18.9,10.1,5.4,24.3,5.8,34.9.9h0Zm-316.3-57.1c10.8-3,19.8-14.6,19.8-25.5,0-10.1-5.1-19.2-13.8-24.3-4.1-2.3-5.8-2.7-12.7-2.7s-8.6.4-12.7,2.7c-9.6,5.7-14.5,15.1-13.5,26.4,1.3,16.6,17.1,27.8,32.9,23.4h0Zm104.6-2.2c2.4-1.1,5.6-3.8,7.2-5.9l2.8-3.9,3.2,4c12,15.1,35,8.8,39.1-10.8,2.2-10.8-.4-18.2-6.5-18.2-4.5,0-6.3,2.4-7,9.9-.8,8.8-1.2,9.8-4.7,11.6-6.6,3.5-10.8.6-14.8-10.3-2.6-6.9-3.5-7.9-7.7-8.8-4.3-.8-7.9,2.5-10.5,9.7-5.2,14.2-17.5,14.7-18.6.7-.2-2.9-.6-6.3-.9-7.5-1.1-5.5-7.4-7.1-11.3-2.9-2,2.1-2.3,3.5-2.3,9.5.1,8.6,2.3,14.1,7.9,19.4,7,6.7,15,7.9,24.1,3.5h0Zm142.1.7c9-4.6,16.1-15.1,16.1-23.9,0-5.7-3-13.5-6.7-17.7-11.4-12.6-28.7-13.1-39.6-.9-12.7,14.2-7,36.9,11,43.6,4.8,1.8,14.8,1.2,19.2-1.1Zm-252.1-96.8c2.5-2.3,3-7.3,1-10-.7-.9-6.2-5.4-12.2-10.1-12.3-9.7-15.6-10.7-20.1-6.1-5.2,5.1-3,9.6,9.2,18.8,15.1,11.4,17,12,22.1,7.4h0Zm256.4-3.9c14.6-11.3,15.8-12.6,15.8-16.6,0-6.5-5.7-10-11.3-7-2.8,1.5-17.4,12.3-20.9,15.6-5.5,5-2.3,14.2,4.9,14.2,2.8,0,5.1-1.3,11.5-6.2Zm-216.5-21.6c1.3-1.5,2.3-3.7,2.3-4.8,0-2.2-17.9-28.3-21.7-31.6-3.2-2.9-7.5-3.3-10.6-.8-3.9,3.1-3.6,7.5.7,13.6,1.9,2.7,6,8.5,9,12.9,7.1,10.1,7.6,10.7,10.6,12.8,3.2,2.2,6.8,1.5,9.7-2.1Zm172-.4c1.6-1.8,4.9-6,7.1-9.3,2.2-3.3,6.1-8.7,8.6-12,6.3-8.3,6.1-13.9-.8-16.5-4.6-1.7-7.8,1-19.1,16.2s-12.1,17.4-8.4,22.2c3.1,3.9,8.5,3.6,12.6-.6h0Zm-131.2-17.3c3.3-3.2,3.2-5.8-.9-18.4-1.9-5.8-4.2-13.1-5.1-16.2-2-7.1-5.3-10.9-9.5-10.9-3.7,0-8,3.9-8,7.2,0,1.3,2.5,10.2,5.5,19.8,3.8,12.3,6,18,7.6,19.2,3.1,2.6,7.5,2.3,10.4-.7Zm88.7.5c1.7-1.3,3.3-4.4,4.8-9.2,1.2-4,3.6-11.3,5.2-16.3,3.8-11.5,3.8-15.2.3-18.2-3.1-2.7-4.6-2.8-8.5-.8-3.1,1.6-3.6,2.6-10.5,24-4.7,14.3-4.9,17.3-1.8,20.8,2.1,2.3,7.4,2.2,10.5-.3Zm-44.1-6.9c2.4-1.9,2.4-2.2,2.7-23.2.2-11.7.1-22.3-.3-23.6-.8-3.3-4.5-6.3-7.6-6.3-1.5,0-4,1-5.5,2.3l-2.7,2.4v23.1l-.1,23.1,2.5,2c3.1,2.6,8,2.7,11,.2Z"/>
    <path class="cls-1" d="m232.84,48c.1-13.6,13.5-25.5,35.5-31.5,11.5-3.1,34.3-3.1,46.7,0,13.5,3.3,29.1,12,26.7,14.8-.9,1.2-7.7.3-10.3-1.4-4.1-2.5-33.9-5.1-35.2-3-.3.5-1.2.7-2,.4-1.9-.7-12.4,1.5-12.4,2.6,0,.5-.4.6-1,.3-1.1-.7-8.9,1.3-10.5,2.7-.5.4-1.7.8-2.7.8s-1.8.5-1.8,1c0,.6-1,1-2.3,1s-5.1,1.8-8.5,4c-3.3,2.2-6.6,4-7.2,4-.5,0-1.9.9-3,2s-2.7,2-3.6,2c-.8,0-1.2.5-.9,1,.3.6-.1,1-1,1s-2.3.7-3.1,1.5c-2.6,2.5-3.4,1.7-3.4-3.2h0Z"/>
  </g>
</svg>